<svg id="svg" version="1.1" xmlns="http://www.w3.org/2000/svg" xmlns:xlink="http://www.w3.org/1999/xlink" width="400" height="386.5743207245605" viewBox="0, 0, 400,386.5743207245605"><g id="svgg"><path id="path0" d="M300.118 0.779 C 299.952 1.210,300.234 1.670,301.799 3.520 C 302.466 4.308,303.369 5.637,303.806 6.473 C 304.247 7.315,305.262 8.704,306.085 9.590 C 316.156 20.434,328.760 41.970,332.115 54.065 C 334.767 63.629,335.621 71.043,335.829 86.308 L 335.962 96.004 336.567 96.074 C 339.123 96.366,344.416 84.199,346.714 72.746 C 351.160 50.595,341.634 26.290,323.030 12.319 C 318.599 8.991,313.270 5.526,310.734 4.323 C 309.372 3.678,307.539 2.785,306.660 2.341 C 303.613 0.800,300.404 0.034,300.118 0.779 M242.320 3.280 C 241.727 3.996,245.352 7.597,251.351 12.252 C 257.310 16.876,271.206 31.661,277.490 40.064 C 287.734 53.764,295.663 71.085,299.197 87.484 C 299.609 89.395,300.222 93.865,300.906 99.947 C 301.493 105.162,302.071 109.957,302.192 110.602 C 302.313 111.247,302.501 114.028,302.611 116.782 C 302.998 126.448,303.196 128.077,303.984 128.077 C 304.830 128.077,304.752 128.243,307.834 119.872 C 313.305 105.015,314.168 86.003,310.095 70.090 C 302.667 41.069,282.615 18.971,252.111 6.188 C 245.588 3.455,242.850 2.642,242.320 3.280 M26.846 182.965 C 26.732 183.266,26.638 183.578,26.638 183.658 C 26.637 183.738,26.169 185.290,25.597 187.107 C 20.634 202.868,20.025 220.344,23.888 236.097 C 28.806 256.151,42.095 276.012,58.284 287.506 C 58.871 287.922,60.225 288.895,61.294 289.667 C 67.429 294.101,73.841 297.505,81.087 300.174 C 91.380 303.966,94.832 304.738,94.832 303.248 C 94.832 302.703,88.339 296.289,85.803 294.329 C 83.366 292.445,83.351 292.432,76.384 286.308 C 63.005 274.547,55.600 265.707,46.570 250.719 C 38.864 237.929,33.135 221.002,30.683 203.786 C 30.454 202.173,30.029 199.633,29.740 198.142 C 29.451 196.651,29.112 193.822,28.986 191.855 C 28.634 186.351,28.338 182.797,28.216 182.599 C 27.958 182.181,27.052 182.423,26.846 182.965 M0.064 279.205 C 0.376 288.036,5.195 298.833,13.502 309.310 C 26.474 325.670,51.714 335.332,74.161 332.529 C 75.509 332.360,77.579 332.134,78.762 332.026 C 83.617 331.581,92.476 328.855,92.774 327.714 C 93.034 326.719,92.869 326.630,89.907 326.173 C 85.253 325.454,80.301 324.501,76.505 323.595 C 74.337 323.078,71.303 322.368,69.764 322.018 C 61.267 320.088,47.589 314.564,37.933 309.165 C 28.401 303.835,16.877 293.931,7.479 282.992 C 1.390 275.904,1.155 275.653,0.541 275.582 L -0.066 275.511 0.064 279.205 " stroke="none" fill="#44ace4" fill-rule="evenodd"></path><path id="path1" d="M197.336 0.227 C 197.043 0.323,195.892 0.690,194.779 1.043 C 191.947 1.940,190.695 2.451,190.879 2.635 C 190.966 2.722,190.856 2.724,190.635 2.639 C 190.358 2.532,190.281 2.561,190.386 2.732 C 190.482 2.887,190.429 2.936,190.242 2.865 C 190.079 2.802,189.823 2.899,189.672 3.080 C 189.522 3.261,189.287 3.410,189.150 3.410 C 189.013 3.410,188.522 3.769,188.058 4.209 C 187.593 4.648,187.252 4.986,187.299 4.958 C 187.346 4.931,187.490 5.052,187.619 5.229 C 187.816 5.498,188.044 5.513,189.025 5.322 C 200.421 3.102,212.148 8.261,218.180 18.149 C 219.420 20.182,296.280 180.293,296.304 180.893 C 296.322 181.354,296.091 181.463,293.340 182.296 C 269.433 189.538,247.092 209.309,236.451 232.642 C 226.364 254.760,227.430 279.059,239.448 300.971 C 242.644 306.799,243.176 307.159,241.177 302.143 C 230.038 274.194,232.548 248.011,248.639 224.294 C 259.251 208.652,276.494 194.031,295.084 184.911 C 295.883 184.519,297.335 183.652,298.310 182.985 C 299.284 182.317,300.644 181.487,301.331 181.141 C 302.018 180.794,302.644 180.405,302.724 180.277 C 302.803 180.148,303.527 179.621,304.332 179.105 C 305.240 178.523,305.842 177.982,305.915 177.682 C 306.047 177.139,304.907 174.227,304.659 174.474 C 304.575 174.559,304.565 174.475,304.636 174.288 C 304.709 174.098,304.598 173.781,304.381 173.564 C 304.169 173.352,304.025 173.172,304.060 173.164 C 304.096 173.155,303.736 172.319,303.261 171.306 C 302.786 170.292,302.397 169.352,302.397 169.215 C 302.397 169.079,302.303 169.027,302.187 169.098 C 302.070 169.170,302.028 169.093,302.092 168.925 C 302.156 168.758,302.036 168.448,301.824 168.237 C 301.612 168.025,301.445 167.797,301.453 167.730 C 301.461 167.663,301.101 166.827,300.654 165.872 C 300.206 164.917,299.840 164.024,299.840 163.888 C 299.840 163.752,299.745 163.699,299.630 163.770 C 299.513 163.843,299.471 163.765,299.535 163.597 C 299.599 163.431,299.499 163.141,299.312 162.955 C 299.125 162.768,298.958 162.540,298.941 162.448 C 298.924 162.356,298.544 161.499,298.097 160.544 C 297.649 159.589,297.283 158.696,297.283 158.560 C 297.283 158.424,297.188 158.371,297.072 158.443 C 296.956 158.515,296.913 158.438,296.978 158.270 C 297.042 158.103,296.942 157.814,296.755 157.627 C 296.568 157.440,296.424 157.260,296.434 157.227 C 296.444 157.193,296.064 156.336,295.589 155.323 C 295.114 154.309,294.726 153.369,294.726 153.233 C 294.726 153.096,294.631 153.044,294.515 153.115 C 294.398 153.187,294.356 153.110,294.421 152.942 C 294.485 152.775,294.384 152.486,294.198 152.299 C 294.011 152.113,293.844 151.884,293.827 151.792 C 293.810 151.700,293.429 150.844,292.982 149.889 C 292.534 148.934,292.168 148.041,292.168 147.905 C 292.168 147.769,292.074 147.716,291.958 147.788 C 291.841 147.860,291.799 147.782,291.863 147.614 C 291.927 147.448,291.827 147.158,291.640 146.972 C 291.453 146.785,291.287 146.557,291.270 146.465 C 291.252 146.373,290.872 145.516,290.425 144.561 C 289.977 143.606,289.611 142.713,289.611 142.577 C 289.611 142.441,289.516 142.388,289.400 142.460 C 289.284 142.532,289.242 142.455,289.306 142.287 C 289.370 142.120,289.290 141.851,289.129 141.690 C 288.967 141.528,288.800 141.300,288.758 141.183 C 288.716 141.066,288.315 140.188,287.867 139.233 C 287.420 138.278,287.054 137.386,287.054 137.250 C 287.054 137.113,286.959 137.061,286.843 137.132 C 286.726 137.204,286.684 137.127,286.749 136.959 C 286.813 136.792,286.733 136.524,286.571 136.362 C 286.410 136.200,286.265 136.020,286.251 135.962 C 286.236 135.903,285.835 135.026,285.360 134.012 C 284.885 132.999,284.497 132.058,284.497 131.922 C 284.497 131.786,284.402 131.733,284.286 131.805 C 284.169 131.877,284.127 131.799,284.192 131.632 C 284.256 131.465,284.135 131.155,283.923 130.943 C 283.711 130.731,283.567 130.551,283.602 130.543 C 283.637 130.534,283.278 129.698,282.803 128.685 C 282.328 127.671,281.939 126.730,281.939 126.594 C 281.939 126.458,281.844 126.405,281.729 126.477 C 281.612 126.549,281.570 126.472,281.634 126.304 C 281.698 126.137,281.577 125.827,281.365 125.615 C 281.154 125.404,280.987 125.175,280.995 125.108 C 281.003 125.041,280.643 124.205,280.196 123.250 C 279.748 122.295,279.382 121.403,279.382 121.267 C 279.382 121.130,279.287 121.078,279.171 121.149 C 279.055 121.221,279.013 121.144,279.077 120.976 C 279.141 120.809,279.020 120.500,278.808 120.288 C 278.596 120.076,278.452 119.896,278.487 119.887 C 278.523 119.879,278.163 119.043,277.688 118.029 C 277.213 117.016,276.825 116.075,276.825 115.939 C 276.825 115.803,276.730 115.750,276.614 115.822 C 276.497 115.894,276.455 115.817,276.520 115.649 C 276.584 115.482,276.483 115.193,276.297 115.006 C 276.110 114.819,275.943 114.591,275.926 114.499 C 275.909 114.407,275.529 113.550,275.081 112.595 C 274.634 111.640,274.267 110.747,274.267 110.611 C 274.267 110.475,274.173 110.422,274.057 110.494 C 273.940 110.566,273.898 110.489,273.962 110.321 C 274.026 110.154,273.926 109.865,273.739 109.678 C 273.553 109.491,273.408 109.311,273.419 109.278 C 273.429 109.244,273.049 108.388,272.574 107.374 C 272.099 106.360,271.710 105.420,271.710 105.284 C 271.710 105.148,271.615 105.095,271.500 105.166 C 271.383 105.238,271.341 105.161,271.405 104.993 C 271.469 104.826,271.369 104.537,271.182 104.350 C 270.995 104.164,270.851 103.984,270.861 103.950 C 270.872 103.917,270.491 103.060,270.016 102.046 C 269.542 101.033,269.153 100.092,269.153 99.956 C 269.153 99.820,269.058 99.767,268.942 99.839 C 268.826 99.911,268.783 99.834,268.848 99.666 C 268.912 99.499,268.812 99.210,268.625 99.023 C 268.438 98.836,268.294 98.656,268.304 98.622 C 268.314 98.589,267.934 97.732,267.459 96.719 C 266.984 95.705,266.596 94.765,266.596 94.628 C 266.596 94.492,266.501 94.439,266.385 94.511 C 266.268 94.583,266.226 94.506,266.291 94.338 C 266.355 94.171,266.254 93.882,266.068 93.695 C 265.881 93.508,265.714 93.280,265.697 93.188 C 265.680 93.096,265.299 92.239,264.852 91.285 C 264.404 90.330,264.038 89.437,264.038 89.301 C 264.038 89.165,263.944 89.112,263.828 89.183 C 263.711 89.255,263.669 89.178,263.733 89.010 C 263.797 88.844,263.697 88.554,263.510 88.368 C 263.323 88.181,263.179 88.001,263.189 87.967 C 263.200 87.934,262.820 87.077,262.345 86.063 C 261.870 85.050,261.481 84.109,261.481 83.973 C 261.481 83.837,261.386 83.784,261.270 83.856 C 261.154 83.928,261.112 83.851,261.176 83.683 C 261.240 83.516,261.140 83.227,260.953 83.040 C 260.766 82.853,260.599 82.625,260.582 82.533 C 260.565 82.441,260.185 81.584,259.737 80.629 C 259.290 79.674,258.924 78.782,258.924 78.645 C 258.924 78.509,258.829 78.456,258.713 78.528 C 258.596 78.600,258.554 78.523,258.619 78.355 C 258.683 78.188,258.582 77.899,258.396 77.712 C 258.209 77.525,258.065 77.345,258.075 77.312 C 258.085 77.278,257.705 76.422,257.230 75.408 C 256.755 74.395,256.367 73.454,256.367 73.318 C 256.367 73.182,256.272 73.129,256.156 73.200 C 256.039 73.273,255.997 73.195,256.062 73.027 C 256.126 72.861,256.025 72.571,255.838 72.385 C 255.652 72.198,255.485 71.970,255.468 71.878 C 255.451 71.786,255.070 70.929,254.623 69.974 C 254.175 69.019,253.809 68.126,253.809 67.990 C 253.809 67.854,253.714 67.801,253.599 67.873 C 253.482 67.945,253.440 67.868,253.504 67.700 C 253.568 67.533,253.468 67.244,253.281 67.057 C 253.094 66.870,252.940 66.668,252.938 66.609 C 252.936 66.549,252.556 65.692,252.093 64.705 C 251.630 63.718,251.252 62.799,251.252 62.662 C 251.252 62.526,251.157 62.473,251.041 62.545 C 250.925 62.617,250.883 62.540,250.947 62.372 C 251.011 62.205,250.911 61.916,250.724 61.729 C 250.537 61.543,250.370 61.314,250.353 61.222 C 250.336 61.130,249.956 60.274,249.508 59.319 C 249.061 58.364,248.695 57.471,248.695 57.335 C 248.695 57.199,248.600 57.146,248.484 57.217 C 248.367 57.290,248.325 57.212,248.390 57.044 C 248.454 56.878,248.353 56.588,248.167 56.402 C 247.980 56.215,247.836 56.035,247.846 56.001 C 247.856 55.968,247.476 55.111,247.001 54.098 C 246.526 53.084,246.137 52.143,246.137 52.007 C 246.137 51.871,246.043 51.818,245.927 51.890 C 245.810 51.962,245.768 51.885,245.832 51.717 C 245.896 51.550,245.796 51.261,245.609 51.074 C 245.423 50.887,245.278 50.707,245.289 50.674 C 245.299 50.640,244.919 49.783,244.444 48.770 C 243.969 47.756,243.580 46.816,243.580 46.680 C 243.580 46.543,243.485 46.491,243.370 46.562 C 243.253 46.634,243.211 46.557,243.275 46.389 C 243.339 46.222,243.239 45.933,243.052 45.746 C 242.865 45.560,242.721 45.379,242.731 45.346 C 242.742 45.312,242.361 44.456,241.886 43.442 C 241.412 42.429,241.023 41.488,241.023 41.352 C 241.023 41.216,240.928 41.163,240.812 41.235 C 240.696 41.307,240.653 41.229,240.718 41.061 C 240.782 40.895,240.702 40.626,240.540 40.464 C 240.379 40.303,240.224 40.101,240.197 40.016 C 240.170 39.931,239.769 39.054,239.307 38.067 C 238.844 37.079,238.466 36.160,238.466 36.024 C 238.466 35.888,238.371 35.835,238.255 35.907 C 238.138 35.979,238.096 35.902,238.161 35.734 C 238.225 35.567,238.124 35.278,237.938 35.091 C 237.751 34.904,237.596 34.703,237.594 34.643 C 237.592 34.583,237.212 33.726,236.749 32.739 C 236.287 31.752,235.908 30.833,235.908 30.697 C 235.908 30.560,235.814 30.508,235.698 30.579 C 235.581 30.651,235.539 30.574,235.603 30.406 C 235.667 30.239,235.567 29.950,235.380 29.763 C 235.194 29.577,235.039 29.375,235.037 29.315 C 235.035 29.255,234.655 28.398,234.192 27.411 C 233.730 26.424,233.351 25.505,233.351 25.369 C 233.351 25.233,233.256 25.180,233.140 25.252 C 233.024 25.324,232.982 25.246,233.046 25.079 C 233.110 24.912,233.010 24.622,232.823 24.436 C 232.636 24.249,232.482 24.047,232.480 23.987 C 232.478 23.927,232.098 23.071,231.635 22.084 C 231.172 21.096,230.794 20.177,230.794 20.041 C 230.794 19.905,230.699 19.852,230.583 19.924 C 230.466 19.996,230.424 19.919,230.489 19.751 C 230.553 19.584,230.452 19.295,230.266 19.108 C 230.079 18.921,229.928 18.718,229.929 18.657 C 229.938 18.333,227.282 13.227,226.640 12.335 C 226.229 11.762,225.892 11.208,225.892 11.104 C 225.892 10.999,225.749 10.859,225.573 10.791 C 225.397 10.724,225.253 10.578,225.253 10.468 C 225.253 10.129,222.385 7.077,221.124 6.074 C 220.682 5.722,220.112 5.268,219.857 5.065 C 219.601 4.862,219.277 4.599,219.135 4.479 C 218.994 4.360,218.817 4.262,218.742 4.262 C 218.667 4.262,218.332 4.067,217.997 3.829 C 216.647 2.867,213.627 1.513,211.401 0.871 C 210.522 0.618,209.527 0.322,209.189 0.213 C 208.438 -0.028,198.079 -0.016,197.336 0.227 M137.986 2.058 C 137.048 2.225,135.970 2.416,135.589 2.482 C 135.208 2.549,134.896 2.705,134.896 2.829 C 134.896 2.953,134.844 3.002,134.780 2.938 C 134.616 2.775,132.453 3.485,131.115 4.141 C 130.500 4.442,129.918 4.688,129.823 4.688 C 129.727 4.688,129.442 4.881,129.190 5.116 C 128.937 5.351,128.184 5.927,127.516 6.395 C 126.848 6.863,126.461 7.246,126.656 7.246 C 126.851 7.246,127.011 7.352,127.011 7.482 C 127.011 7.621,127.164 7.657,127.384 7.569 C 128.235 7.231,131.746 6.827,133.868 6.823 C 143.586 6.807,152.760 11.572,158.018 19.368 C 159.123 21.005,166.362 36.017,194.043 94.071 C 213.096 134.031,228.841 166.839,229.031 166.978 C 229.869 167.590,242.494 174.960,242.705 174.960 C 243.125 174.960,243.325 175.383,209.775 105.030 C 191.533 66.779,176.368 34.907,176.074 34.204 C 175.535 32.915,174.724 30.382,174.693 29.888 C 174.684 29.742,174.596 29.622,174.498 29.622 C 174.401 29.622,174.321 29.434,174.321 29.206 C 174.321 28.578,173.862 27.699,173.614 27.852 C 173.485 27.931,173.447 27.853,173.521 27.660 C 173.590 27.480,173.470 27.042,173.253 26.686 C 173.037 26.330,172.917 25.982,172.986 25.913 C 173.056 25.843,173.004 25.786,172.871 25.786 C 172.733 25.786,172.688 25.634,172.765 25.431 C 172.853 25.203,172.818 25.128,172.667 25.222 C 172.538 25.301,172.372 25.269,172.298 25.150 C 172.225 25.031,172.290 24.932,172.443 24.930 C 172.645 24.928,172.654 24.883,172.475 24.770 C 172.340 24.683,172.065 24.205,171.866 23.707 C 171.667 23.210,171.419 22.802,171.314 22.802 C 171.210 22.802,171.124 22.635,171.123 22.429 C 171.122 22.224,170.938 21.779,170.715 21.440 C 170.491 21.101,170.364 20.678,170.433 20.499 C 170.514 20.289,170.471 20.229,170.310 20.328 C 170.149 20.427,170.107 20.366,170.190 20.150 C 170.260 19.967,170.206 19.819,170.069 19.819 C 169.932 19.819,169.880 19.723,169.952 19.606 C 170.024 19.489,169.926 19.393,169.734 19.393 C 169.541 19.393,169.428 19.273,169.482 19.126 C 169.566 18.898,168.960 17.470,168.330 16.409 C 168.225 16.233,168.055 15.898,167.951 15.663 C 167.847 15.429,167.514 14.971,167.211 14.646 C 166.908 14.321,166.657 14.009,166.654 13.953 C 166.651 13.898,166.649 13.750,166.649 13.626 C 166.649 13.502,166.553 13.460,166.436 13.532 C 166.319 13.605,166.223 13.522,166.223 13.348 C 166.223 13.174,165.935 12.745,165.583 12.393 C 165.232 12.041,164.941 11.674,164.938 11.577 C 164.935 11.480,164.603 11.161,164.201 10.868 C 163.798 10.575,163.202 9.983,162.875 9.552 C 162.548 9.122,162.017 8.613,161.694 8.422 C 161.372 8.230,161.108 7.983,161.108 7.873 C 161.108 7.762,160.961 7.672,160.782 7.672 C 160.602 7.672,160.400 7.529,160.333 7.353 C 160.266 7.178,160.139 7.079,160.051 7.134 C 159.963 7.188,159.669 6.996,159.397 6.706 C 159.125 6.417,158.776 6.180,158.620 6.180 C 158.465 6.180,158.338 6.068,158.338 5.931 C 158.338 5.795,158.274 5.746,158.197 5.824 C 158.119 5.901,157.735 5.720,157.343 5.421 C 156.951 5.122,156.520 4.946,156.386 5.029 C 156.223 5.129,156.200 5.085,156.315 4.898 C 156.443 4.691,156.392 4.653,156.124 4.756 C 155.913 4.837,155.812 4.810,155.885 4.692 C 155.954 4.580,155.743 4.424,155.416 4.346 C 155.089 4.268,154.582 4.080,154.289 3.929 C 153.480 3.510,150.031 2.403,149.068 2.253 C 148.599 2.180,147.640 2.027,146.937 1.914 C 145.111 1.620,139.991 1.703,137.986 2.058 M115.411 40.543 C 115.691 41.441,115.919 41.982,116.018 41.982 C 116.072 41.982,115.970 41.550,115.790 41.023 C 115.463 40.062,115.130 39.641,115.411 40.543 M95.152 44.018 C 91.581 44.621,86.632 46.494,84.819 47.927 C 84.007 48.570,84.397 48.662,86.689 48.370 C 97.945 46.936,108.915 51.846,115.030 61.055 C 115.589 61.896,129.409 90.644,146.737 127.011 L 177.454 191.476 184.358 195.571 C 191.624 199.880,191.582 199.859,191.582 199.371 C 191.582 199.130,154.661 121.441,128.026 65.637 C 123.435 56.016,122.446 54.425,119.085 51.238 C 112.787 45.267,103.803 42.556,95.152 44.018 M382.016 75.838 L 381.400 75.972 382.303 76.370 C 385.435 77.748,389.455 83.447,390.714 88.292 C 393.435 98.764,390.856 109.921,378.671 140.392 C 361.183 184.123,355.050 208.005,355.288 231.433 C 355.467 248.979,355.327 253.612,354.383 261.481 C 349.065 305.815,322.877 343.151,281.382 365.559 C 250.125 382.439,211.608 388.006,184.413 379.574 C 182.922 379.112,182.433 379.229,182.877 379.939 C 183.033 380.190,183.283 380.394,183.432 380.394 C 183.581 380.394,183.870 380.479,184.073 380.582 C 184.277 380.686,184.683 380.877,184.976 381.006 C 185.554 381.261,189.797 382.615,191.404 383.056 C 191.950 383.206,192.491 383.387,192.606 383.459 C 192.824 383.593,195.418 384.223,196.164 384.322 C 196.399 384.353,196.974 384.483,197.443 384.610 C 198.294 384.840,200.144 385.225,201.304 385.414 C 201.642 385.468,202.120 385.559,202.367 385.614 C 202.900 385.734,205.385 386.091,207.218 386.311 C 208.987 386.523,234.142 386.511,236.015 386.297 C 238.472 386.016,241.756 385.579,242.834 385.389 C 243.186 385.327,243.665 385.243,243.900 385.201 C 244.134 385.160,244.710 385.061,245.178 384.982 C 245.647 384.903,246.702 384.699,247.523 384.528 C 248.343 384.358,249.206 384.183,249.441 384.139 C 251.102 383.826,254.896 382.915,258.071 382.066 C 258.950 381.831,260.077 381.543,260.575 381.426 C 261.074 381.308,261.481 381.144,261.481 381.062 C 261.481 380.979,261.777 380.889,262.139 380.861 C 262.500 380.833,263.143 380.666,263.567 380.489 C 264.512 380.094,267.749 379.017,268.613 378.810 C 268.960 378.726,269.650 378.473,270.146 378.248 C 270.642 378.022,271.191 377.837,271.366 377.837 C 271.542 377.837,271.740 377.748,271.807 377.640 C 271.873 377.532,272.236 377.376,272.611 377.294 C 272.987 377.211,273.441 377.071,273.621 376.982 C 273.948 376.821,274.761 376.476,275.759 376.074 C 276.278 375.865,276.941 375.584,278.367 374.967 C 280.272 374.144,281.113 373.766,282.601 373.062 C 283.492 372.641,284.331 372.296,284.466 372.296 C 284.600 372.296,284.710 372.195,284.710 372.071 C 284.710 371.946,284.806 371.904,284.923 371.977 C 285.040 372.049,285.136 372.001,285.136 371.870 C 285.136 371.739,285.232 371.691,285.349 371.763 C 285.466 371.836,285.562 371.778,285.562 371.634 C 285.562 371.490,285.621 371.432,285.694 371.505 C 285.767 371.577,285.966 371.496,286.137 371.325 C 286.309 371.154,286.537 371.068,286.645 371.135 C 286.753 371.201,286.841 371.149,286.841 371.018 C 286.841 370.887,286.937 370.839,287.054 370.911 C 287.171 370.983,287.267 370.936,287.267 370.804 C 287.267 370.673,287.363 370.625,287.480 370.698 C 287.597 370.770,287.693 370.722,287.693 370.591 C 287.693 370.460,287.789 370.412,287.906 370.485 C 288.023 370.557,288.119 370.515,288.119 370.391 C 288.119 370.267,288.191 370.177,288.279 370.190 C 288.726 370.261,288.981 370.139,288.845 369.919 C 288.753 369.771,288.786 369.731,288.927 369.818 C 289.055 369.897,289.670 369.648,290.292 369.265 C 290.914 368.881,291.558 368.538,291.723 368.502 C 291.888 368.467,292.261 368.251,292.551 368.023 C 292.841 367.795,293.194 367.608,293.337 367.608 C 293.479 367.608,293.816 367.416,294.086 367.182 C 294.357 366.947,294.665 366.755,294.772 366.755 C 294.880 366.755,295.281 366.516,295.664 366.224 C 296.048 365.931,296.411 365.742,296.472 365.803 C 296.533 365.864,296.704 365.767,296.852 365.589 C 297.001 365.410,297.254 365.264,297.416 365.264 C 297.577 365.264,297.709 365.185,297.709 365.088 C 297.709 364.937,298.378 364.535,300.069 363.668 C 300.295 363.552,300.479 363.385,300.479 363.295 C 300.479 363.206,300.623 363.133,300.799 363.133 C 300.975 363.133,301.119 363.037,301.119 362.920 C 301.119 362.802,301.263 362.706,301.438 362.706 C 301.614 362.706,301.758 362.622,301.758 362.518 C 301.758 362.415,301.960 362.277,302.206 362.213 C 302.491 362.138,302.595 362.001,302.493 361.835 C 302.390 361.669,302.420 361.630,302.578 361.727 C 302.713 361.811,302.824 361.778,302.824 361.653 C 302.824 361.529,302.896 361.451,302.983 361.480 C 303.176 361.542,304.819 360.557,304.919 360.318 C 304.958 360.225,305.118 360.149,305.274 360.149 C 305.431 360.149,305.590 360.077,305.630 359.989 C 305.739 359.744,307.244 358.657,307.475 358.657 C 307.587 358.657,307.735 358.514,307.802 358.338 C 307.870 358.162,308.077 358.018,308.264 358.018 C 308.450 358.018,308.550 357.932,308.485 357.828 C 308.420 357.723,308.610 357.576,308.907 357.502 C 309.204 357.427,309.390 357.273,309.320 357.159 C 309.249 357.046,309.327 356.953,309.491 356.953 C 309.656 356.953,310.012 356.761,310.282 356.526 C 310.553 356.292,310.861 356.100,310.967 356.100 C 311.073 356.100,311.105 356.011,311.038 355.902 C 310.970 355.794,311.118 355.640,311.366 355.562 C 311.614 355.483,311.975 355.279,312.168 355.107 C 313.817 353.647,314.456 353.117,314.566 353.117 C 314.637 353.117,314.982 352.853,315.334 352.531 C 315.685 352.208,316.301 351.682,316.702 351.362 C 317.103 351.041,317.857 350.394,318.377 349.923 C 318.897 349.453,319.392 349.068,319.476 349.068 C 319.561 349.068,319.691 348.876,319.766 348.641 C 319.840 348.407,320.016 348.215,320.157 348.215 C 320.369 348.215,325.847 342.956,328.041 340.646 C 328.373 340.297,328.787 339.867,328.960 339.691 C 330.097 338.535,331.380 337.053,331.380 336.895 C 331.380 336.792,331.469 336.708,331.579 336.708 C 331.688 336.708,331.837 336.521,331.909 336.292 C 331.982 336.064,332.218 335.821,332.433 335.752 C 332.649 335.684,332.944 335.343,333.088 334.996 C 333.232 334.648,333.482 334.363,333.643 334.363 C 333.805 334.363,333.937 334.285,333.937 334.189 C 333.937 334.093,334.201 333.707,334.523 333.331 C 334.845 332.955,335.301 332.403,335.535 332.103 C 335.770 331.803,336.129 331.350,336.334 331.096 C 337.553 329.585,339.478 326.885,339.478 326.686 C 339.478 326.558,339.574 326.513,339.691 326.585 C 339.808 326.657,339.904 326.615,339.904 326.491 C 339.904 326.097,339.986 325.956,340.483 325.495 C 340.751 325.247,340.970 324.943,340.970 324.820 C 340.970 324.697,341.058 324.564,341.167 324.525 C 341.275 324.486,341.395 324.310,341.433 324.135 C 341.471 323.960,341.607 323.720,341.735 323.602 C 342.117 323.250,343.953 320.507,343.953 320.288 C 343.953 320.177,344.055 320.085,344.179 320.085 C 344.303 320.085,344.352 320.000,344.288 319.896 C 344.223 319.792,344.313 319.590,344.486 319.446 C 344.659 319.302,344.759 319.117,344.708 319.034 C 344.657 318.952,344.802 318.750,345.030 318.585 C 345.258 318.421,345.445 318.175,345.445 318.040 C 345.445 317.904,345.588 317.675,345.762 317.530 C 345.937 317.385,346.035 317.194,345.980 317.106 C 345.926 317.018,346.071 316.774,346.302 316.564 C 346.534 316.355,346.723 316.067,346.723 315.925 C 346.723 315.784,346.920 315.418,347.159 315.114 C 347.399 314.809,347.584 314.504,347.570 314.436 C 347.556 314.368,347.741 313.980,347.981 313.573 C 348.221 313.166,348.424 312.789,348.431 312.734 C 348.438 312.680,348.967 311.712,349.606 310.583 C 350.245 309.454,350.707 308.430,350.631 308.308 C 350.551 308.178,350.597 308.149,350.740 308.238 C 350.875 308.321,350.986 308.300,350.986 308.190 C 350.986 308.081,351.338 307.236,351.768 306.313 C 352.199 305.390,352.534 304.563,352.514 304.475 C 352.494 304.387,352.573 304.315,352.690 304.315 C 352.808 304.315,352.904 304.161,352.904 303.971 C 352.904 303.782,353.080 303.279,353.295 302.853 C 353.791 301.873,354.501 300.246,355.006 298.934 C 355.108 298.671,355.299 298.191,355.432 297.869 C 356.224 295.949,357.708 291.707,357.903 290.805 C 357.931 290.676,358.024 290.378,358.111 290.144 C 358.197 289.909,358.390 289.382,358.541 288.972 C 359.193 287.192,360.883 280.905,361.348 278.530 C 361.406 278.237,361.551 277.565,361.671 277.038 C 362.028 275.470,362.070 275.261,362.182 274.481 C 362.242 274.070,362.382 273.351,362.496 272.882 C 362.872 271.320,363.858 264.088,364.107 261.055 C 364.179 260.176,364.275 259.217,364.321 258.924 C 364.699 256.484,364.793 248.595,364.608 234.949 C 364.498 226.873,364.785 222.595,366.008 214.065 C 366.176 212.893,366.415 211.454,366.539 210.868 C 367.095 208.242,368.294 202.294,368.364 201.811 C 368.406 201.518,368.774 199.987,369.180 198.408 C 369.587 196.830,369.864 195.448,369.796 195.339 C 369.729 195.229,369.767 195.197,369.882 195.268 C 370.002 195.342,370.217 194.787,370.385 193.969 C 370.732 192.282,370.701 192.410,370.869 192.009 C 371.218 191.174,371.651 189.733,371.654 189.395 C 371.656 189.188,371.740 188.853,371.843 188.649 C 371.945 188.446,372.244 187.560,372.509 186.681 C 372.773 185.802,373.215 184.424,373.492 183.618 C 373.768 182.813,373.947 182.078,373.890 181.985 C 373.832 181.892,373.867 181.784,373.968 181.744 C 374.152 181.672,375.745 177.043,375.789 176.452 C 375.802 176.276,375.863 176.084,375.925 176.026 C 375.987 175.967,376.212 175.344,376.426 174.640 C 376.640 173.937,376.941 173.074,377.095 172.722 C 377.248 172.371,377.489 171.714,377.629 171.263 C 377.769 170.813,378.016 170.189,378.179 169.878 C 378.341 169.567,378.474 169.141,378.475 168.931 C 378.476 168.722,378.656 168.194,378.876 167.759 C 379.097 167.324,379.344 166.658,379.426 166.278 C 379.508 165.899,379.663 165.534,379.771 165.467 C 379.880 165.400,379.968 165.202,379.968 165.026 C 379.968 164.851,380.164 164.278,380.403 163.754 C 380.642 163.229,380.780 162.707,380.710 162.593 C 380.640 162.480,380.674 162.387,380.787 162.387 C 380.899 162.387,381.110 161.883,381.256 161.268 C 381.402 160.653,381.747 159.652,382.023 159.044 C 382.299 158.436,382.525 157.827,382.525 157.691 C 382.525 157.555,382.665 157.141,382.835 156.772 C 383.191 156.001,383.730 154.523,384.050 153.436 C 384.171 153.026,384.357 152.599,384.463 152.488 C 384.569 152.377,384.656 152.151,384.656 151.987 C 384.656 151.823,384.810 151.339,384.998 150.911 C 385.425 149.937,385.609 149.475,385.945 148.535 C 386.092 148.125,386.351 147.453,386.521 147.043 C 386.692 146.633,386.910 146.105,387.007 145.871 C 387.105 145.637,387.299 145.061,387.439 144.592 C 387.580 144.124,387.815 143.500,387.961 143.207 C 388.281 142.567,388.571 141.865,388.929 140.863 C 389.281 139.878,389.760 138.715,390.002 138.255 C 390.109 138.052,390.197 137.779,390.197 137.648 C 390.197 137.417,390.676 136.228,391.067 135.485 C 391.175 135.282,391.263 135.008,391.263 134.878 C 391.263 134.748,391.416 134.291,391.604 133.863 C 391.792 133.435,392.029 132.893,392.131 132.658 C 392.366 132.119,392.930 130.522,393.201 129.633 C 393.315 129.258,393.548 128.682,393.719 128.354 C 393.890 128.026,394.031 127.629,394.032 127.473 C 394.032 127.317,394.321 126.469,394.673 125.590 C 395.026 124.710,395.260 123.903,395.194 123.796 C 395.127 123.689,395.158 123.601,395.262 123.601 C 395.365 123.601,395.669 122.858,395.937 121.950 C 396.204 121.042,396.591 119.771,396.796 119.126 C 397.002 118.482,397.290 117.523,397.437 116.995 C 397.585 116.468,397.789 115.796,397.891 115.503 C 397.994 115.210,398.228 114.299,398.411 113.479 C 398.595 112.658,398.826 111.652,398.924 111.241 C 399.911 107.123,399.890 107.375,399.890 99.627 C 399.890 95.525,399.853 91.929,399.810 91.636 C 399.609 90.294,398.024 86.180,397.585 85.858 C 397.487 85.786,397.418 85.664,397.433 85.586 C 397.613 84.631,391.002 77.986,389.771 77.884 C 389.712 77.879,389.461 77.762,389.213 77.624 C 388.965 77.486,388.701 77.433,388.627 77.507 C 388.553 77.581,388.492 77.533,388.492 77.400 C 388.492 77.262,388.340 77.216,388.138 77.294 C 387.880 77.393,387.831 77.353,387.957 77.148 C 388.080 76.949,388.050 76.916,387.857 77.036 C 387.680 77.144,387.433 77.022,387.169 76.696 C 386.890 76.351,386.721 76.272,386.647 76.452 C 386.531 76.736,386.131 76.826,386.173 76.558 C 386.240 76.137,386.119 76.078,385.813 76.383 C 385.443 76.754,385.083 76.824,385.083 76.525 C 385.083 76.419,384.891 76.382,384.656 76.443 C 384.422 76.505,384.230 76.458,384.230 76.340 C 384.230 76.223,384.110 76.131,383.964 76.136 C 383.090 76.169,382.517 76.052,382.632 75.866 C 382.704 75.749,382.734 75.664,382.698 75.678 C 382.661 75.692,382.355 75.764,382.016 75.838 M62.334 97.007 C 61.630 97.117,60.839 97.224,60.575 97.245 C 60.312 97.266,60.096 97.342,60.096 97.415 C 60.096 97.488,59.928 97.537,59.723 97.525 C 59.243 97.497,56.646 98.048,56.367 98.237 C 56.249 98.317,55.698 98.550,55.141 98.756 C 54.584 98.961,54.129 99.223,54.129 99.338 C 54.129 99.452,54.033 99.486,53.916 99.414 C 53.799 99.342,53.703 99.389,53.703 99.521 C 53.703 99.652,53.623 99.709,53.525 99.649 C 53.428 99.589,53.020 99.762,52.620 100.034 C 51.888 100.531,51.762 100.586,51.346 100.586 C 51.222 100.586,51.180 100.682,51.252 100.799 C 51.324 100.916,51.285 101.012,51.163 101.012 C 50.945 101.012,50.293 102.096,50.293 102.459 C 50.293 102.563,51.132 102.522,52.158 102.367 C 63.235 100.702,73.850 106.217,78.911 116.267 C 79.329 117.097,90.456 140.352,103.639 167.945 C 116.821 195.538,128.047 219.025,128.584 220.139 L 129.561 222.163 135.878 225.892 C 142.973 230.081,143.627 230.445,143.786 230.286 C 143.890 230.182,142.020 226.221,129.188 199.361 C 126.557 193.852,122.916 186.228,121.098 182.419 C 119.280 178.609,117.219 174.294,116.517 172.829 C 115.161 169.997,113.746 167.032,112.093 163.559 C 110.302 159.797,108.894 156.848,100.698 139.691 C 96.274 130.432,91.496 120.410,90.079 117.421 C 85.872 108.547,83.359 104.917,79.814 102.595 C 79.520 102.402,79.322 102.175,79.374 102.090 C 79.427 102.005,79.351 101.936,79.206 101.936 C 78.842 101.936,77.784 101.221,77.784 100.975 C 77.784 100.865,77.685 100.835,77.565 100.909 C 77.445 100.983,77.373 100.929,77.405 100.788 C 77.438 100.648,77.331 100.484,77.168 100.425 C 76.969 100.353,76.928 100.408,77.041 100.591 C 77.154 100.775,77.126 100.813,76.954 100.707 C 76.756 100.585,76.755 100.478,76.949 100.245 C 77.154 99.998,77.265 99.992,77.546 100.210 C 77.852 100.450,77.858 100.438,77.596 100.104 C 77.358 99.801,77.240 99.779,76.986 99.989 C 76.733 100.199,76.620 100.180,76.408 99.889 C 76.262 99.690,76.086 99.585,76.016 99.655 C 75.889 99.781,74.374 98.941,74.374 98.745 C 74.374 98.689,74.485 98.711,74.620 98.795 C 74.777 98.892,74.808 98.853,74.705 98.686 C 74.616 98.543,74.419 98.474,74.265 98.533 C 73.894 98.675,71.786 98.110,71.607 97.820 C 71.474 97.606,70.697 97.424,69.473 97.320 C 69.180 97.296,68.844 97.217,68.727 97.146 C 68.609 97.075,68.274 97.038,67.981 97.064 C 67.688 97.089,67.184 97.036,66.862 96.945 C 66.461 96.832,66.275 96.859,66.273 97.031 C 66.271 97.190,66.212 97.204,66.113 97.070 C 65.907 96.789,63.937 96.756,62.334 97.007 M158.144 362.211 C 158.541 362.701,158.910 363.057,158.964 363.003 C 159.018 362.949,158.693 362.549,158.242 362.113 L 157.421 361.321 158.144 362.211 " stroke="none" fill="#eca454" fill-rule="evenodd"></path><path id="path2" d="M186.465 5.372 C 186.056 5.752,185.657 6.064,185.577 6.068 C 185.178 6.084,180.467 10.855,180.615 11.093 C 180.676 11.192,180.529 11.379,180.288 11.508 C 180.047 11.637,179.900 11.823,179.961 11.922 C 180.022 12.021,179.929 12.157,179.754 12.225 C 179.579 12.292,179.435 12.494,179.435 12.673 C 179.435 12.853,179.334 12.999,179.210 12.999 C 179.085 12.999,179.043 13.095,179.116 13.213 C 179.188 13.330,179.166 13.426,179.068 13.426 C 178.969 13.426,178.718 13.713,178.510 14.065 C 178.302 14.417,178.201 14.704,178.284 14.704 C 178.368 14.704,178.293 14.872,178.119 15.077 C 177.720 15.547,176.687 17.560,176.589 18.059 C 176.549 18.265,176.464 18.578,176.401 18.753 C 175.843 20.303,175.597 21.054,175.531 21.417 C 175.488 21.652,175.392 22.083,175.319 22.376 C 175.036 23.502,174.924 24.483,174.810 26.819 C 174.738 28.284,174.620 29.124,174.509 28.950 C 174.377 28.742,174.326 28.794,174.324 29.142 C 174.322 29.406,174.401 29.622,174.498 29.622 C 174.596 29.622,174.684 29.742,174.693 29.888 C 174.724 30.382,175.535 32.915,176.074 34.204 C 176.368 34.907,191.533 66.779,209.775 105.030 C 243.325 175.383,243.125 174.960,242.705 174.960 C 242.494 174.960,229.869 167.590,229.031 166.978 C 228.841 166.839,213.096 134.031,194.043 94.071 C 166.362 36.017,159.123 21.005,158.018 19.368 C 152.760 11.572,143.586 6.807,133.868 6.823 C 131.746 6.827,128.235 7.231,127.384 7.569 C 127.164 7.657,127.011 7.621,127.011 7.482 C 127.011 7.129,126.377 7.197,126.236 7.564 C 126.169 7.739,126.035 7.833,125.938 7.774 C 125.841 7.714,125.627 7.857,125.462 8.093 C 125.297 8.329,125.110 8.470,125.046 8.406 C 124.983 8.343,124.525 8.751,124.029 9.313 C 123.534 9.876,123.201 10.192,123.290 10.016 C 123.379 9.840,123.102 10.027,122.675 10.431 C 122.247 10.835,121.897 11.250,121.897 11.355 C 121.897 11.459,121.564 11.838,121.158 12.198 C 120.752 12.557,120.467 12.928,120.525 13.021 C 120.583 13.115,120.433 13.297,120.192 13.426 C 119.951 13.555,119.806 13.745,119.871 13.849 C 119.935 13.954,119.859 14.117,119.702 14.212 C 119.362 14.418,118.107 16.228,118.017 16.642 C 117.982 16.801,117.833 17.062,117.686 17.220 C 117.538 17.379,117.472 17.597,117.539 17.705 C 117.605 17.813,117.552 17.901,117.421 17.901 C 117.290 17.901,117.242 17.997,117.315 18.114 C 117.387 18.231,117.329 18.327,117.185 18.327 C 117.042 18.327,116.984 18.386,117.056 18.459 C 117.129 18.532,117.048 18.731,116.877 18.902 C 116.705 19.074,116.620 19.302,116.686 19.410 C 116.753 19.518,116.718 19.606,116.608 19.606 C 116.415 19.606,115.234 22.914,114.973 24.188 C 114.271 27.618,114.175 28.504,114.177 31.540 C 114.180 34.550,114.281 35.477,114.954 38.679 C 115.028 39.030,115.274 39.758,115.500 40.295 C 115.726 40.832,115.968 41.597,116.038 41.994 C 116.108 42.392,116.280 42.790,116.421 42.879 C 116.561 42.968,116.598 43.042,116.504 43.044 C 116.409 43.046,116.477 43.311,116.655 43.633 C 116.833 43.956,117.186 44.723,117.439 45.338 C 117.693 45.954,117.984 46.457,118.087 46.457 C 118.190 46.457,118.251 46.529,118.223 46.617 C 118.133 46.902,118.745 48.162,118.975 48.162 C 119.097 48.162,119.139 48.220,119.067 48.292 C 118.996 48.363,119.124 48.770,119.351 49.194 C 120.048 50.495,119.563 50.481,118.231 49.164 C 117.898 48.833,117.520 48.634,117.385 48.717 C 117.245 48.804,117.201 48.773,117.280 48.644 C 117.418 48.422,116.392 47.599,116.090 47.688 C 116.002 47.714,115.930 47.642,115.930 47.528 C 115.930 47.303,114.647 46.555,114.385 46.626 C 114.297 46.651,114.225 46.558,114.225 46.422 C 114.225 46.285,114.167 46.231,114.097 46.301 C 114.027 46.371,113.581 46.147,113.106 45.804 C 112.631 45.460,112.071 45.178,111.861 45.178 C 111.651 45.178,111.426 45.092,111.360 44.985 C 111.221 44.760,107.993 43.565,107.075 43.399 C 106.729 43.337,106.231 43.232,105.967 43.167 C 105.173 42.969,104.568 42.839,103.783 42.696 C 102.603 42.481,96.328 42.431,95.152 42.628 C 94.566 42.726,93.703 42.869,93.234 42.945 C 92.474 43.070,90.360 43.696,89.505 44.050 C 89.329 44.123,89.137 44.199,89.078 44.219 C 89.020 44.240,88.780 44.329,88.546 44.418 C 88.311 44.506,87.856 44.678,87.533 44.798 C 87.211 44.919,86.947 45.101,86.947 45.204 C 86.947 45.307,86.875 45.373,86.787 45.349 C 86.497 45.273,85.669 45.630,85.669 45.832 C 85.669 45.941,85.597 46.014,85.509 45.994 C 85.253 45.934,84.177 46.508,84.177 46.704 C 84.177 46.803,84.043 46.883,83.880 46.883 C 83.716 46.883,83.285 47.162,82.921 47.502 C 82.557 47.842,82.255 48.057,82.251 47.981 C 82.247 47.905,81.997 48.130,81.695 48.482 C 81.393 48.833,81.217 48.977,81.304 48.801 C 81.390 48.625,80.562 49.408,79.462 50.539 C 77.372 52.692,76.828 53.298,76.820 53.484 C 76.817 53.546,76.555 53.872,76.238 54.209 C 75.920 54.546,75.712 54.906,75.776 55.008 C 75.839 55.111,75.800 55.194,75.689 55.194 C 75.579 55.194,75.331 55.526,75.138 55.931 C 74.946 56.337,74.694 56.727,74.578 56.798 C 74.462 56.870,74.422 57.018,74.490 57.127 C 74.557 57.236,74.517 57.326,74.401 57.326 C 74.189 57.326,73.826 58.145,73.906 58.444 C 73.929 58.532,73.846 58.604,73.722 58.604 C 73.598 58.604,73.556 58.700,73.628 58.817 C 73.701 58.934,73.669 59.030,73.557 59.030 C 73.393 59.030,73.189 59.497,72.999 60.309 C 72.985 60.368,72.867 60.607,72.736 60.842 C 72.498 61.269,71.893 63.214,71.701 64.169 C 71.645 64.449,71.542 64.965,71.471 65.317 C 70.874 68.291,70.684 72.224,71.013 74.800 C 71.330 77.286,71.424 77.878,71.527 78.045 C 71.585 78.139,71.676 78.479,71.728 78.799 C 71.810 79.303,72.206 80.560,72.615 81.620 C 72.683 81.795,72.747 82.003,72.757 82.081 C 72.767 82.159,72.848 82.295,72.936 82.383 C 73.023 82.471,73.095 82.719,73.095 82.934 C 73.095 83.149,73.197 83.324,73.321 83.324 C 73.445 83.324,73.498 83.403,73.439 83.499 C 73.379 83.596,73.523 83.991,73.759 84.378 C 73.994 84.765,74.379 85.597,74.615 86.228 C 74.851 86.858,75.133 87.373,75.242 87.373 C 75.351 87.373,75.417 87.445,75.389 87.533 C 75.298 87.819,75.911 89.078,76.140 89.078 C 76.263 89.078,76.300 89.141,76.223 89.219 C 76.146 89.296,76.170 89.465,76.278 89.594 C 76.385 89.723,76.679 90.380,76.931 91.052 C 77.182 91.725,77.483 92.275,77.598 92.275 C 77.714 92.275,77.750 92.371,77.677 92.488 C 77.605 92.605,77.647 92.701,77.771 92.701 C 77.895 92.701,77.978 92.773,77.955 92.861 C 77.871 93.176,78.243 93.980,78.473 93.980 C 78.602 93.980,78.643 94.044,78.564 94.123 C 78.486 94.201,78.547 94.465,78.701 94.709 C 78.855 94.952,79.151 95.607,79.359 96.164 C 79.567 96.721,79.831 97.176,79.945 97.176 C 80.059 97.176,80.094 97.272,80.021 97.389 C 79.949 97.507,79.991 97.603,80.115 97.603 C 80.239 97.603,80.322 97.674,80.299 97.762 C 80.222 98.053,80.579 98.881,80.782 98.881 C 80.891 98.881,80.956 98.958,80.927 99.053 C 80.898 99.147,81.033 99.554,81.227 99.958 C 81.421 100.362,81.748 101.100,81.952 101.598 C 82.156 102.096,82.421 102.504,82.540 102.504 C 82.659 102.504,82.696 102.564,82.623 102.638 C 82.549 102.711,82.623 103.031,82.787 103.348 C 83.042 103.841,83.042 103.925,82.788 103.925 C 82.625 103.925,82.540 103.845,82.601 103.747 C 82.661 103.649,82.561 103.570,82.378 103.570 C 82.195 103.570,82.046 103.468,82.046 103.344 C 82.046 103.220,81.935 103.187,81.800 103.270 C 81.652 103.361,81.611 103.329,81.698 103.189 C 81.780 103.057,81.360 102.589,80.723 102.104 C 80.066 101.603,79.549 101.341,79.470 101.469 C 79.395 101.589,79.282 101.488,79.218 101.243 C 79.155 100.999,78.949 100.799,78.763 100.799 C 78.576 100.799,78.423 100.698,78.423 100.573 C 78.423 100.449,78.327 100.407,78.210 100.479 C 78.093 100.552,77.997 100.494,77.997 100.350 C 77.997 100.206,77.937 100.149,77.864 100.222 C 77.791 100.295,77.422 100.119,77.045 99.831 C 76.667 99.543,76.219 99.307,76.048 99.307 C 75.877 99.307,75.640 99.209,75.520 99.089 C 75.307 98.877,74.374 98.616,74.374 98.769 C 74.374 98.936,75.868 99.758,76.022 99.676 C 76.193 99.584,76.918 100.255,76.949 100.533 C 76.959 100.621,77.022 100.741,77.090 100.799 C 77.157 100.858,77.136 100.773,77.042 100.612 C 76.925 100.409,76.964 100.351,77.168 100.425 C 77.331 100.484,77.438 100.648,77.405 100.788 C 77.373 100.929,77.445 100.983,77.565 100.909 C 77.685 100.835,77.784 100.865,77.784 100.975 C 77.784 101.221,78.842 101.936,79.206 101.936 C 79.351 101.936,79.427 102.005,79.374 102.090 C 79.322 102.175,79.520 102.402,79.814 102.595 C 83.359 104.917,85.872 108.547,90.079 117.421 C 91.496 120.410,96.274 130.432,100.698 139.691 C 108.894 156.848,110.302 159.797,112.093 163.559 C 113.746 167.032,115.161 169.997,116.517 172.829 C 117.219 174.294,119.280 178.609,121.098 182.419 C 122.916 186.228,126.557 193.852,129.188 199.361 C 142.020 226.221,143.890 230.182,143.786 230.286 C 143.627 230.445,142.973 230.081,135.878 225.892 L 129.561 222.163 128.584 220.139 C 128.047 219.025,116.821 195.538,103.639 167.945 C 90.456 140.352,79.329 117.097,78.911 116.267 C 73.850 106.217,63.235 100.702,52.158 102.367 C 51.132 102.522,50.293 102.563,50.293 102.459 C 50.293 102.107,50.922 101.051,51.184 100.964 C 51.356 100.907,51.369 100.830,51.220 100.739 C 51.098 100.663,50.801 100.783,50.561 101.007 C 50.321 101.230,50.067 101.355,49.996 101.284 C 49.925 101.212,49.867 101.266,49.867 101.403 C 49.867 101.540,49.720 101.652,49.540 101.652 C 49.361 101.652,49.159 101.795,49.092 101.970 C 49.025 102.145,48.894 102.242,48.802 102.185 C 48.710 102.128,48.479 102.320,48.288 102.611 C 48.097 102.902,47.862 103.117,47.765 103.089 C 47.561 103.029,44.222 106.359,44.221 106.623 C 44.220 106.721,44.028 106.941,43.793 107.112 C 43.559 107.284,43.367 107.494,43.367 107.579 C 43.367 107.665,43.151 107.967,42.888 108.250 C 42.624 108.533,42.408 108.882,42.408 109.026 C 42.408 109.170,42.323 109.320,42.219 109.359 C 41.921 109.471,40.083 113.369,39.932 114.210 C 39.857 114.628,39.721 115.067,39.631 115.184 C 39.349 115.550,39.045 116.874,38.582 119.766 C 38.396 120.926,38.440 127.001,38.643 128.129 C 38.700 128.451,38.815 129.123,38.898 129.621 C 38.980 130.120,39.104 130.622,39.173 130.737 C 39.242 130.852,39.321 131.092,39.348 131.270 C 39.514 132.338,39.914 133.617,40.081 133.617 C 40.189 133.617,40.277 133.836,40.277 134.103 C 40.277 134.370,40.426 134.801,40.609 135.062 C 40.791 135.322,40.878 135.535,40.802 135.535 C 40.725 135.535,40.895 135.943,41.179 136.441 C 41.463 136.939,41.863 137.802,42.069 138.359 C 42.275 138.916,42.531 139.371,42.639 139.371 C 42.746 139.371,42.812 139.443,42.784 139.531 C 42.693 139.817,43.306 141.076,43.535 141.076 C 43.658 141.076,43.695 141.139,43.618 141.216 C 43.540 141.294,43.565 141.463,43.673 141.592 C 43.780 141.721,44.074 142.377,44.325 143.050 C 44.577 143.723,44.878 144.273,44.993 144.273 C 45.109 144.273,45.144 144.369,45.072 144.486 C 44.999 144.603,45.042 144.699,45.166 144.699 C 45.290 144.699,45.373 144.771,45.349 144.859 C 45.266 145.174,45.638 145.978,45.868 145.978 C 45.997 145.978,46.041 146.039,45.965 146.114 C 45.890 146.189,45.966 146.501,46.134 146.807 C 46.302 147.113,46.647 147.866,46.901 148.482 C 47.155 149.097,47.462 149.600,47.584 149.600 C 47.707 149.600,47.743 149.664,47.665 149.743 C 47.587 149.821,47.839 150.468,48.227 151.181 C 48.614 151.894,49.101 152.933,49.310 153.490 C 49.518 154.046,49.783 154.502,49.897 154.502 C 50.011 154.502,50.046 154.598,49.973 154.715 C 49.901 154.832,49.943 154.928,50.067 154.928 C 50.191 154.928,50.274 155.000,50.251 155.088 C 50.167 155.403,50.540 156.207,50.769 156.207 C 50.898 156.207,50.942 156.268,50.867 156.343 C 50.792 156.418,50.868 156.730,51.036 157.036 C 51.204 157.342,51.549 158.095,51.802 158.711 C 52.056 159.326,52.364 159.830,52.486 159.830 C 52.608 159.830,52.644 159.893,52.566 159.972 C 52.488 160.050,52.741 160.697,53.128 161.410 C 53.515 162.123,54.003 163.162,54.211 163.719 C 54.420 164.275,54.684 164.731,54.798 164.731 C 54.913 164.731,54.947 164.827,54.875 164.944 C 54.802 165.061,54.845 165.157,54.969 165.157 C 55.093 165.157,55.175 165.229,55.152 165.317 C 55.069 165.632,55.441 166.436,55.671 166.436 C 55.799 166.436,55.843 166.497,55.768 166.572 C 55.693 166.647,55.769 166.959,55.937 167.265 C 56.105 167.571,56.450 168.324,56.704 168.940 C 56.957 169.555,57.265 170.059,57.387 170.059 C 57.510 170.059,57.546 170.123,57.468 170.201 C 57.389 170.279,57.642 170.926,58.030 171.639 C 58.417 172.352,58.904 173.391,59.113 173.948 C 59.321 174.505,59.580 174.960,59.687 174.960 C 59.795 174.960,59.860 175.032,59.832 175.120 C 59.742 175.405,60.354 176.665,60.583 176.665 C 60.706 176.665,60.742 176.729,60.663 176.808 C 60.585 176.886,60.646 177.150,60.800 177.394 C 60.954 177.638,61.250 178.292,61.458 178.849 C 61.666 179.406,61.930 179.861,62.044 179.861 C 62.158 179.861,62.193 179.957,62.120 180.075 C 62.048 180.192,62.090 180.288,62.214 180.288 C 62.339 180.288,62.421 180.360,62.398 180.448 C 62.315 180.763,62.687 181.566,62.916 181.566 C 63.045 181.566,63.086 181.631,63.008 181.709 C 62.929 181.788,63.009 182.072,63.186 182.342 C 63.362 182.611,63.705 183.362,63.948 184.010 C 64.190 184.659,64.478 185.189,64.586 185.189 C 64.695 185.189,64.761 185.261,64.734 185.349 C 64.643 185.634,65.256 186.894,65.485 186.894 C 65.607 186.894,65.643 186.958,65.565 187.037 C 65.486 187.115,65.548 187.379,65.702 187.623 C 65.856 187.867,66.152 188.522,66.359 189.078 C 66.567 189.635,66.831 190.091,66.945 190.091 C 67.060 190.091,67.094 190.186,67.022 190.304 C 66.949 190.421,66.992 190.517,67.116 190.517 C 67.240 190.517,67.323 190.589,67.299 190.677 C 67.216 190.992,67.588 191.795,67.818 191.795 C 67.946 191.795,67.988 191.860,67.909 191.938 C 67.830 192.017,67.911 192.301,68.087 192.571 C 68.264 192.840,68.606 193.591,68.849 194.239 C 69.092 194.888,69.379 195.418,69.488 195.418 C 69.597 195.418,69.663 195.490,69.635 195.578 C 69.545 195.863,70.157 197.123,70.386 197.123 C 70.509 197.123,70.546 197.186,70.469 197.263 C 70.392 197.340,70.417 197.509,70.524 197.639 C 70.631 197.768,70.925 198.424,71.177 199.097 C 71.428 199.769,71.729 200.320,71.845 200.320 C 71.960 200.320,71.996 200.416,71.923 200.533 C 71.851 200.650,71.893 200.746,72.017 200.746 C 72.141 200.746,72.224 200.818,72.201 200.906 C 72.117 201.221,72.490 202.025,72.719 202.025 C 72.848 202.025,72.892 202.086,72.817 202.161 C 72.742 202.236,72.818 202.548,72.986 202.854 C 73.154 203.159,73.499 203.913,73.752 204.529 C 74.006 205.144,74.313 205.647,74.436 205.647 C 74.558 205.647,74.594 205.711,74.516 205.789 C 74.438 205.868,74.691 206.515,75.078 207.228 C 75.465 207.941,75.953 208.980,76.161 209.536 C 76.370 210.093,76.634 210.549,76.748 210.549 C 76.863 210.549,76.897 210.645,76.825 210.762 C 76.752 210.879,76.795 210.975,76.919 210.975 C 77.043 210.975,77.125 211.047,77.102 211.135 C 77.019 211.450,77.391 212.254,77.620 212.254 C 77.749 212.254,77.793 212.315,77.718 212.390 C 77.643 212.465,77.719 212.777,77.887 213.083 C 78.055 213.389,78.400 214.142,78.654 214.758 C 78.907 215.373,79.215 215.876,79.337 215.876 C 79.460 215.876,79.496 215.940,79.417 216.018 C 79.339 216.097,79.592 216.744,79.979 217.457 C 80.367 218.170,80.854 219.209,81.063 219.766 C 81.271 220.322,81.535 220.778,81.650 220.778 C 81.764 220.778,81.799 220.874,81.726 220.991 C 81.654 221.108,81.696 221.204,81.820 221.204 C 81.944 221.204,82.027 221.276,82.004 221.364 C 81.920 221.679,82.292 222.483,82.522 222.483 C 82.651 222.483,82.695 222.544,82.620 222.619 C 82.545 222.694,82.621 223.006,82.789 223.312 C 82.957 223.618,83.302 224.371,83.555 224.987 C 83.809 225.602,84.116 226.105,84.239 226.105 C 84.361 226.105,84.397 226.169,84.319 226.248 C 84.241 226.326,84.494 226.973,84.881 227.686 C 85.268 228.399,85.756 229.438,85.964 229.995 C 86.173 230.551,86.431 231.007,86.539 231.007 C 86.646 231.007,86.711 231.079,86.683 231.167 C 86.593 231.452,87.206 232.712,87.435 232.712 C 87.557 232.712,87.593 232.776,87.515 232.855 C 87.436 232.933,87.498 233.197,87.652 233.441 C 87.806 233.684,88.101 234.339,88.309 234.896 C 88.517 235.453,88.781 235.908,88.895 235.908 C 89.010 235.908,89.044 236.004,88.972 236.121 C 88.899 236.239,88.942 236.335,89.066 236.335 C 89.190 236.335,89.272 236.406,89.249 236.494 C 89.166 236.810,89.538 237.613,89.768 237.613 C 89.896 237.613,89.938 237.677,89.859 237.756 C 89.780 237.835,89.861 238.119,90.037 238.389 C 90.213 238.658,90.556 239.409,90.799 240.057 C 91.042 240.706,91.329 241.236,91.438 241.236 C 91.547 241.236,91.613 241.308,91.585 241.396 C 91.494 241.681,92.107 242.941,92.336 242.941 C 92.459 242.941,92.495 243.005,92.416 243.084 C 92.338 243.162,92.399 243.426,92.553 243.670 C 92.707 243.913,93.003 244.568,93.211 245.125 C 93.419 245.682,93.682 246.137,93.797 246.137 C 93.911 246.137,93.946 246.233,93.873 246.351 C 93.801 246.468,93.843 246.564,93.967 246.564 C 94.091 246.564,94.174 246.636,94.151 246.723 C 94.067 247.039,94.439 247.842,94.669 247.842 C 94.798 247.842,94.839 247.907,94.760 247.985 C 94.682 248.064,94.762 248.348,94.938 248.618 C 95.115 248.887,95.458 249.638,95.700 250.286 C 95.943 250.935,96.230 251.465,96.339 251.465 C 96.448 251.465,96.514 251.537,96.486 251.625 C 96.396 251.910,97.008 253.170,97.238 253.170 C 97.360 253.170,97.397 253.233,97.320 253.310 C 97.243 253.387,97.268 253.556,97.375 253.686 C 97.483 253.815,97.776 254.471,98.028 255.144 C 98.280 255.816,98.580 256.367,98.696 256.367 C 98.812 256.367,98.847 256.462,98.775 256.580 C 98.702 256.697,98.744 256.793,98.869 256.793 C 98.993 256.793,99.075 256.865,99.052 256.953 C 98.969 257.268,99.341 258.071,99.570 258.071 C 99.699 258.071,99.743 258.133,99.668 258.208 C 99.593 258.283,99.669 258.595,99.837 258.900 C 100.005 259.206,100.350 259.960,100.604 260.575 C 100.857 261.191,101.165 261.694,101.287 261.694 C 101.409 261.694,101.446 261.758,101.367 261.836 C 101.289 261.914,101.546 262.562,101.937 263.275 C 102.329 263.988,102.768 264.931,102.913 265.370 C 103.058 265.810,103.265 266.169,103.373 266.169 C 103.481 266.169,103.554 266.241,103.535 266.329 C 103.463 266.658,103.837 267.661,104.031 267.661 C 104.143 267.661,104.185 267.740,104.126 267.836 C 104.066 267.933,104.138 268.244,104.286 268.529 C 104.434 268.813,104.565 269.120,104.579 269.210 C 104.687 269.947,104.908 270.645,105.033 270.645 C 105.116 270.645,105.198 270.839,105.216 271.076 C 105.234 271.314,105.391 271.792,105.564 272.140 C 105.737 272.487,105.942 273.059,106.019 273.410 C 106.096 273.762,106.248 274.104,106.356 274.171 C 106.464 274.238,106.554 274.455,106.554 274.653 C 106.555 274.851,106.707 275.301,106.893 275.653 C 107.079 276.004,107.269 276.484,107.315 276.718 C 107.462 277.453,108.327 279.481,108.564 279.645 C 108.689 279.731,108.707 279.803,108.605 279.805 C 108.502 279.807,108.538 279.952,108.684 280.128 C 108.830 280.304,108.887 280.448,108.812 280.448 C 108.736 280.448,108.831 280.687,109.023 280.980 C 109.215 281.273,109.302 281.513,109.215 281.513 C 109.129 281.513,109.169 281.647,109.305 281.811 C 109.441 281.975,109.588 282.286,109.631 282.504 C 109.746 283.085,110.605 285.202,110.841 285.487 C 110.953 285.621,111.085 285.944,111.135 286.203 C 111.185 286.462,111.408 287.071,111.630 287.557 C 111.852 288.042,112.355 289.206,112.747 290.144 C 113.140 291.082,113.561 291.919,113.683 292.005 C 113.805 292.091,113.822 292.163,113.721 292.165 C 113.619 292.167,113.691 292.405,113.881 292.694 C 114.070 292.983,114.225 293.366,114.225 293.546 C 114.225 293.726,114.326 293.873,114.451 293.873 C 114.575 293.873,114.626 293.955,114.564 294.055 C 114.502 294.155,114.589 294.419,114.758 294.641 C 114.926 294.863,115.067 295.213,115.070 295.418 C 115.074 295.623,115.179 295.791,115.303 295.791 C 115.427 295.791,115.474 295.879,115.408 295.987 C 115.341 296.095,115.438 296.335,115.623 296.520 C 115.809 296.705,115.886 296.857,115.796 296.857 C 115.705 296.857,115.746 296.972,115.887 297.112 C 116.028 297.253,116.143 297.534,116.143 297.737 C 116.143 297.939,116.293 298.256,116.478 298.440 C 116.662 298.624,116.748 298.775,116.670 298.775 C 116.591 298.775,116.708 299.086,116.930 299.467 C 117.151 299.848,117.504 300.615,117.714 301.172 C 117.924 301.729,118.184 302.184,118.291 302.184 C 118.399 302.184,118.468 302.256,118.445 302.344 C 118.368 302.635,118.725 303.463,118.928 303.463 C 119.037 303.463,119.103 303.535,119.075 303.623 C 119.028 303.770,120.387 306.759,121.182 308.258 C 121.369 308.609,121.845 309.521,122.242 310.282 C 122.638 311.044,123.060 311.786,123.180 311.930 C 123.299 312.074,123.381 312.218,123.362 312.249 C 123.259 312.415,123.661 313.266,123.842 313.266 C 123.958 313.266,124.002 313.348,123.940 313.448 C 123.879 313.548,124.113 314.079,124.461 314.627 C 124.809 315.176,125.093 315.717,125.093 315.831 C 125.093 315.944,125.195 316.036,125.319 316.036 C 125.443 316.036,125.490 316.124,125.424 316.232 C 125.357 316.340,125.423 316.558,125.571 316.717 C 125.718 316.875,125.871 317.146,125.909 317.318 C 125.948 317.490,126.055 317.679,126.147 317.739 C 126.239 317.799,126.382 318.063,126.464 318.327 C 126.546 318.591,126.709 318.807,126.825 318.807 C 126.941 318.807,126.982 318.894,126.916 319.002 C 126.849 319.109,127.024 319.469,127.304 319.801 C 127.583 320.133,127.809 320.453,127.806 320.511 C 127.792 320.799,128.124 321.577,128.261 321.577 C 128.347 321.577,128.539 321.913,128.687 322.323 C 128.835 322.733,129.027 323.069,129.113 323.069 C 129.199 323.069,129.391 323.404,129.539 323.815 C 129.688 324.225,129.899 324.560,130.008 324.560 C 130.118 324.560,130.208 324.704,130.208 324.880 C 130.208 325.056,130.309 325.200,130.433 325.200 C 130.558 325.200,130.609 325.281,130.547 325.381 C 130.486 325.480,130.606 325.744,130.813 325.967 C 131.021 326.190,131.185 326.441,131.179 326.525 C 131.172 326.609,131.313 326.849,131.492 327.058 C 131.671 327.266,131.834 327.512,131.855 327.603 C 131.947 328.014,132.863 329.462,133.030 329.462 C 133.133 329.462,133.157 329.558,133.085 329.675 C 133.012 329.792,133.055 329.888,133.179 329.888 C 133.303 329.888,133.404 330.014,133.404 330.168 C 133.404 330.321,133.590 330.647,133.818 330.891 C 134.045 331.135,134.173 331.393,134.102 331.464 C 134.031 331.535,134.085 331.593,134.221 331.593 C 134.358 331.593,134.470 331.719,134.470 331.872 C 134.470 332.026,134.656 332.352,134.883 332.596 C 135.111 332.840,135.239 333.097,135.167 333.169 C 135.096 333.240,135.150 333.298,135.287 333.298 C 135.424 333.298,135.535 333.397,135.535 333.519 C 135.535 333.924,136.955 335.856,137.133 335.694 C 137.230 335.607,137.244 335.649,137.164 335.788 C 137.001 336.072,139.934 340.543,140.283 340.543 C 140.407 340.543,140.449 340.602,140.377 340.674 C 140.244 340.807,141.816 343.081,142.233 343.359 C 142.359 343.443,142.461 343.589,142.461 343.684 C 142.461 343.964,144.078 346.084,144.291 346.084 C 144.398 346.084,144.462 346.156,144.433 346.244 C 144.370 346.438,145.778 348.428,145.980 348.428 C 146.058 348.428,146.234 348.673,146.371 348.973 C 146.507 349.273,146.714 349.459,146.831 349.387 C 146.948 349.315,147.055 349.357,147.070 349.481 C 147.084 349.605,147.108 349.789,147.123 349.889 C 147.138 349.989,147.533 350.527,148.002 351.085 C 148.471 351.642,149.094 352.390,149.387 352.748 C 149.680 353.106,150.300 353.791,150.764 354.270 C 151.228 354.749,151.612 355.209,151.617 355.293 C 151.621 355.376,152.009 355.806,152.477 356.248 C 152.946 356.690,153.330 357.119,153.330 357.201 C 153.330 357.283,154.193 358.189,155.248 359.216 C 156.303 360.242,157.046 361.010,156.899 360.923 C 156.406 360.628,156.627 360.908,157.643 361.863 C 158.234 362.419,158.433 362.545,158.123 362.167 C 157.831 361.811,158.571 362.530,159.768 363.765 C 160.965 365.000,161.948 365.926,161.953 365.823 C 161.957 365.720,162.301 366.008,162.717 366.462 C 163.133 366.917,163.543 367.288,163.628 367.288 C 163.713 367.288,164.164 367.657,164.630 368.107 C 166.023 369.453,166.501 369.861,166.335 369.563 C 166.206 369.332,166.256 369.330,166.613 369.553 C 166.852 369.702,167.009 369.887,166.962 369.963 C 166.871 370.111,168.768 371.548,169.054 371.550 C 169.146 371.550,169.290 371.657,169.374 371.787 C 169.584 372.115,172.743 374.214,173.026 374.214 C 173.152 374.214,173.255 374.304,173.255 374.413 C 173.255 374.522,173.466 374.679,173.725 374.761 C 173.983 374.843,174.326 375.042,174.488 375.203 C 174.649 375.365,174.869 375.442,174.977 375.376 C 175.085 375.309,175.173 375.362,175.173 375.493 C 175.173 375.624,175.252 375.682,175.348 375.623 C 175.445 375.563,175.687 375.706,175.887 375.939 C 176.087 376.172,176.343 376.306,176.457 376.235 C 176.572 376.165,176.665 376.202,176.665 376.318 C 176.665 376.530,177.484 376.893,177.784 376.814 C 177.872 376.790,177.944 376.853,177.944 376.953 C 177.944 377.052,178.948 377.604,180.177 378.178 C 181.405 378.752,182.412 379.330,182.414 379.462 C 182.417 379.595,182.587 379.834,182.792 379.995 C 183.133 380.263,183.139 380.255,182.859 379.899 C 182.347 379.248,182.953 379.122,184.413 379.574 C 211.608 388.006,250.125 382.439,281.382 365.559 C 322.877 343.151,349.065 305.815,354.383 261.481 C 355.327 253.612,355.467 248.979,355.288 231.433 C 355.050 208.005,361.183 184.123,378.671 140.392 C 390.856 109.921,393.435 98.764,390.714 88.292 C 389.456 83.448,385.532 77.880,382.310 76.363 L 381.380 75.926 382.048 75.828 C 382.415 75.774,382.667 75.808,382.608 75.904 C 382.514 76.057,383.152 76.166,383.964 76.136 C 384.110 76.131,384.230 76.223,384.230 76.340 C 384.230 76.458,384.417 76.506,384.646 76.446 C 384.875 76.386,385.093 76.428,385.130 76.540 C 385.167 76.651,385.367 76.677,385.575 76.598 C 386.033 76.422,385.923 75.960,385.433 76.002 C 385.240 76.018,385.083 75.957,385.083 75.867 C 385.083 75.776,384.891 75.652,384.656 75.591 C 384.400 75.524,384.283 75.565,384.363 75.695 C 384.436 75.813,384.268 75.763,383.990 75.584 C 383.522 75.282,383.038 75.154,381.353 74.884 C 379.893 74.651,375.922 74.599,374.534 74.795 C 373.120 74.995,372.734 75.067,371.604 75.344 C 371.340 75.409,370.884 75.508,370.591 75.564 C 369.815 75.715,367.995 76.312,367.501 76.579 C 367.267 76.706,367.027 76.817,366.969 76.826 C 366.415 76.913,365.264 77.435,365.264 77.600 C 365.264 77.715,365.176 77.754,365.068 77.688 C 364.960 77.621,364.732 77.707,364.560 77.878 C 364.389 78.049,364.190 78.130,364.117 78.058 C 364.044 77.985,363.985 78.054,363.985 78.210 C 363.985 78.366,363.925 78.433,363.850 78.359 C 363.708 78.217,361.797 79.249,361.676 79.534 C 361.637 79.626,361.467 79.702,361.297 79.702 C 361.127 79.702,360.933 79.845,360.866 80.020 C 360.799 80.195,360.664 80.289,360.566 80.229 C 360.468 80.168,360.290 80.289,360.169 80.496 C 360.048 80.704,359.946 80.800,359.943 80.711 C 359.932 80.458,358.278 81.615,358.142 81.971 C 358.076 82.144,357.939 82.235,357.838 82.173 C 357.738 82.111,357.138 82.557,356.505 83.165 C 355.872 83.772,355.296 84.273,355.225 84.276 C 355.048 84.286,349.707 89.638,349.707 89.805 C 349.707 89.878,349.395 90.261,349.014 90.656 C 348.094 91.610,347.668 92.141,347.750 92.233 C 347.787 92.274,347.589 92.516,347.309 92.771 C 346.729 93.299,345.445 94.931,345.445 95.139 C 345.445 95.215,345.210 95.530,344.923 95.839 C 344.637 96.149,344.444 96.470,344.496 96.553 C 344.548 96.637,344.447 96.760,344.272 96.828 C 344.096 96.895,343.953 97.097,343.953 97.276 C 343.953 97.456,343.857 97.603,343.740 97.603 C 343.623 97.603,343.527 97.697,343.527 97.813 C 343.527 97.929,343.382 98.193,343.206 98.399 C 343.029 98.606,342.909 98.825,342.939 98.886 C 342.969 98.948,342.778 99.229,342.515 99.512 C 342.251 99.795,342.035 100.153,342.035 100.307 C 342.035 100.460,341.923 100.586,341.787 100.586 C 341.650 100.586,341.596 100.644,341.667 100.715 C 341.738 100.786,341.614 101.041,341.390 101.280 C 341.167 101.520,341.035 101.797,341.096 101.897 C 341.158 101.996,341.101 102.078,340.970 102.078 C 340.839 102.078,340.791 102.174,340.864 102.292 C 340.937 102.410,340.856 102.561,340.683 102.627 C 340.510 102.694,340.249 103.053,340.102 103.425 C 339.954 103.798,339.691 104.270,339.516 104.475 C 339.342 104.680,339.286 104.850,339.392 104.851 C 339.498 104.853,339.478 104.925,339.348 105.011 C 339.083 105.187,336.236 110.815,336.412 110.815 C 336.474 110.815,336.373 110.967,336.188 111.152 C 336.003 111.337,335.906 111.577,335.972 111.685 C 336.039 111.792,336.012 111.881,335.912 111.881 C 335.813 111.881,335.364 112.768,334.915 113.852 C 334.466 114.936,333.918 116.213,333.698 116.690 C 333.478 117.166,333.298 117.698,333.298 117.872 C 333.298 118.046,333.183 118.304,333.042 118.444 C 332.901 118.585,332.865 118.700,332.960 118.700 C 333.056 118.700,332.994 118.916,332.822 119.180 C 332.401 119.828,331.563 122.110,331.745 122.110 C 331.826 122.110,331.776 122.225,331.636 122.365 C 331.495 122.506,331.380 122.834,331.380 123.094 C 331.380 123.353,331.298 123.598,331.198 123.637 C 330.971 123.726,329.888 126.965,329.888 127.555 C 329.888 127.795,329.795 128.085,329.681 128.198 C 329.567 128.312,329.438 128.595,329.393 128.827 C 329.349 129.059,329.260 129.393,329.195 129.568 C 328.872 130.439,327.888 133.777,327.844 134.150 C 327.816 134.385,327.773 134.600,327.748 134.630 C 327.724 134.659,327.684 134.755,327.659 134.843 C 327.634 134.931,327.558 135.147,327.490 135.322 C 327.422 135.498,327.294 135.930,327.206 136.281 C 327.023 137.012,327.020 137.023,326.844 137.453 C 326.605 138.037,325.557 141.604,325.528 141.932 C 325.512 142.110,325.443 142.350,325.375 142.465 C 325.217 142.730,324.093 146.402,324.038 146.830 C 324.016 147.006,323.925 147.310,323.836 147.506 C 323.748 147.702,323.656 147.990,323.632 148.145 C 323.609 148.301,323.533 148.524,323.464 148.641 C 323.318 148.890,321.345 154.817,321.281 155.201 C 321.257 155.344,321.122 155.669,320.982 155.924 C 320.842 156.179,320.700 156.563,320.666 156.777 C 320.633 156.991,320.531 157.286,320.439 157.432 C 320.348 157.579,320.351 157.700,320.446 157.702 C 320.540 157.704,320.519 157.775,320.398 157.862 C 320.277 157.948,319.927 158.641,319.620 159.403 C 318.806 161.425,318.735 161.625,318.773 161.801 C 318.791 161.889,318.717 161.961,318.608 161.961 C 318.406 161.961,318.048 162.789,318.125 163.079 C 318.148 163.167,318.066 163.239,317.942 163.239 C 317.817 163.239,317.775 163.335,317.848 163.452 C 317.920 163.570,317.884 163.665,317.768 163.665 C 317.583 163.665,317.221 164.441,317.271 164.731 C 317.281 164.790,317.086 165.053,316.839 165.317 C 316.591 165.581,316.457 165.796,316.540 165.796 C 316.624 165.796,316.500 166.003,316.265 166.255 C 316.030 166.507,315.888 166.795,315.950 166.894 C 316.011 166.994,315.973 167.075,315.866 167.075 C 315.692 167.075,314.249 169.077,314.143 169.464 C 314.121 169.548,313.842 169.890,313.524 170.224 C 310.404 173.507,308.757 175.178,308.883 174.934 C 308.966 174.772,308.789 174.928,308.489 175.280 C 308.189 175.631,307.847 175.919,307.729 175.919 C 307.610 175.919,307.239 176.178,306.905 176.494 C 306.425 176.946,306.237 177.014,306.020 176.813 C 305.804 176.614,305.779 176.619,305.902 176.837 C 306.266 177.478,305.784 178.175,304.332 179.105 C 303.527 179.621,302.803 180.148,302.724 180.277 C 302.644 180.405,302.018 180.794,301.331 181.141 C 300.644 181.487,299.284 182.317,298.310 182.985 C 297.335 183.652,295.883 184.519,295.084 184.911 C 276.494 194.031,259.251 208.652,248.639 224.294 C 232.548 248.011,230.038 274.194,241.177 302.143 C 243.176 307.159,242.644 306.799,239.448 300.971 C 227.430 279.059,226.364 254.760,236.451 232.642 C 247.092 209.309,269.433 189.538,293.340 182.296 C 296.091 181.463,296.322 181.354,296.304 180.893 C 296.280 180.293,219.420 20.182,218.180 18.149 C 212.148 8.263,200.421 3.102,189.029 5.321 C 187.958 5.530,187.833 5.512,187.534 5.116 C 187.212 4.688,187.199 4.691,186.465 5.372 M162.893 9.597 C 163.192 9.953,163.752 10.497,164.137 10.807 C 164.522 11.117,164.313 10.826,163.673 10.161 C 162.404 8.842,162.031 8.573,162.893 9.597 M104.635 44.017 C 112.387 45.273,119.489 50.056,123.606 56.793 C 124.107 57.613,126.096 61.593,128.026 65.637 C 154.661 121.441,191.582 199.130,191.582 199.371 C 191.582 199.859,191.624 199.880,184.358 195.571 L 177.454 191.476 146.737 127.011 C 129.409 90.644,115.589 61.896,115.030 61.055 C 108.915 51.846,97.945 46.936,86.689 48.370 C 83.489 48.778,83.672 48.334,87.480 46.459 C 92.440 44.016,98.930 43.092,104.635 44.017 M387.214 76.717 C 387.214 76.902,387.886 77.357,388.159 77.357 C 388.225 77.357,388.279 77.256,388.279 77.132 C 388.279 77.008,388.183 76.965,388.066 77.038 C 387.949 77.110,387.853 77.078,387.853 76.967 C 387.853 76.855,387.709 76.709,387.533 76.641 C 387.357 76.574,387.214 76.608,387.214 76.717 M71.604 97.819 C 71.604 97.925,72.011 98.118,72.509 98.246 C 73.007 98.375,73.607 98.533,73.841 98.598 C 74.129 98.678,74.198 98.646,74.054 98.498 C 73.746 98.183,71.604 97.590,71.604 97.819 M52.264 99.994 C 52.001 100.121,51.785 100.308,51.785 100.410 C 51.785 100.512,52.025 100.439,52.318 100.247 C 53.099 99.735,53.072 99.604,52.264 99.994 M328.128 340.445 C 327.807 340.743,327.544 341.049,327.544 341.125 C 327.544 341.200,327.832 340.987,328.183 340.650 C 328.771 340.087,328.914 339.904,328.767 339.904 C 328.737 339.904,328.449 340.148,328.128 340.445 M322.736 345.924 L 322.110 346.617 322.802 345.991 C 323.448 345.408,323.593 345.232,323.428 345.232 C 323.392 345.232,323.080 345.543,322.736 345.924 " stroke="none" fill="#fcdb64" fill-rule="evenodd"></path></g></svg>